<svg id="visual" viewBox="0 0 900 600" width="900" height="600" xmlns="http://www.w3.org/2000/svg" xmlns:xlink="http://www.w3.org/1999/xlink" version="1.1"><rect x="0" y="0" width="900" height="600" fill="#dfeed3"></rect><path d="M0 368L129 346L257 338L386 300L514 346L643 363L771 353L900 326L900 601L771 601L643 601L514 601L386 601L257 601L129 601L0 601Z" fill="#3a395a"></path><path d="M0 376L129 397L257 441L386 427L514 386L643 354L771 401L900 366L900 601L771 601L643 601L514 601L386 601L257 601L129 601L0 601Z" fill="#2f6c94"></path><path d="M0 441L129 432L257 488L386 433L514 442L643 431L771 462L900 409L900 601L771 601L643 601L514 601L386 601L257 601L129 601L0 601Z" fill="#00a4ba"></path><path d="M0 473L129 523L257 463L386 469L514 514L643 530L771 459L900 522L900 601L771 601L643 601L514 601L386 601L257 601L129 601L0 601Z" fill="#00d9ac"></path><path d="M0 547L129 509L257 546L386 528L514 563L643 516L771 531L900 536L900 601L771 601L643 601L514 601L386 601L257 601L129 601L0 601Z" fill="#b9ff5e"></path></svg>